<svg xmlns="http://www.w3.org/2000/svg" xmlns:xlink="http://www.w3.org/1999/xlink" width="290.504" height="290.504" viewBox="0 0 290.504 290.504">
  <defs>
    <clipPath id="clip-path">
      <circle id="Elipse_498" data-name="Elipse 498" cx="119.34" cy="119.34" r="119.34" fill="none"/>
    </clipPath>
    <clipPath id="clip-path-2">
      <rect id="Rect치ngulo_57984" data-name="Rect치ngulo 57984" width="247.056" height="246.637" fill="none"/>
    </clipPath>
    <clipPath id="clip-path-3">
      <rect id="Rect치ngulo_57983" data-name="Rect치ngulo 57983" width="9.711" height="11.975" fill="none"/>
    </clipPath>
  </defs>
  <g id="Grupo_23695" data-name="Grupo 23695" transform="translate(19264 -9187.682)">
    <g id="Grupo_23694" data-name="Grupo 23694" transform="translate(170 1212.5)">
      <g id="Grupo_23691" data-name="Grupo 23691">
        <path id="Trazado_9026" data-name="Trazado 9026" d="M145.252,0A145.252,145.252,0,1,1,0,145.252,145.252,145.252,0,0,1,145.252,0Z" transform="translate(-19434 7975.182)" fill="#99c7eb"/>
        <g id="Grupo_23654" data-name="Grupo 23654" transform="translate(-19413.949 7992.182)">
          <g id="Grupo_23648" data-name="Grupo 23648" transform="translate(8.375)">
            <g id="Grupo_23647" data-name="Grupo 23647" clip-path="url(#clip-path)">
              <path id="Trazado_9008" data-name="Trazado 9008" d="M61.962,32.934S79.135,50.709,79.9,72.026c.969,27.088-10.636,19.386-6.854,38.657s43.324,32.054,13.476,43.626c-16.9,6.552-34.056-2.64-36.221-29.352-1.5-18.513,12.942-20.8,16.41-39.708s-7.9-36.557-6.328-40.969,1.577-11.345,1.577-11.345" transform="translate(83.302 43.931)"/>
              <path id="Trazado_9009" data-name="Trazado 9009" d="M62,32.934S79.172,50.709,79.938,72.026c.969,27.088-10.636,19.386-6.854,38.657s43.324,32.054,13.476,43.626c-16.9,6.552-34.056-2.64-36.221-29.352-1.5-18.513,7.629-21.436,11.094-40.344s-2.586-35.921-1.012-40.333S62,32.934,62,32.934" transform="translate(83.264 43.931)"/>
              <path id="Trazado_9010" data-name="Trazado 9010" d="M90.446,53.893s5.7,48.143-6.967,52.574S29,129.27,19.5,138.14,8.734,171.37,8.734,171.37H192.39l-2.654-29.2s-5.107-28.177-52.614-40.845c-7.7-2.055-1.7-51.235-1.7-51.235Z" transform="translate(7.579 75.267)" fill="#ffdcd4"/>
              <path id="Trazado_9011" data-name="Trazado 9011" d="M58,67.768c-8.652,0-16.653-4.183-16.786-4.257L42.18,61.7c.209.113,21.02,10.972,30.387-3.488l1.721,1.116c-4.209,6.5-10.4,8.437-16.289,8.437" transform="translate(66.899 90.104)" fill="#ffdcd4"/>
              <path id="Trazado_9012" data-name="Trazado 9012" d="M86.7,73.123s41.136,39.205,46.913,36.975S159.7,72.88,166.145,69.848s44.943,19.613,52.391,24.646c18.508,12.51,26.178,39.09,26.178,39.09H.007s-.984-21.02,21.851-32.625C32.881,95.356,86.7,73.123,86.7,73.123" transform="translate(-8.372 110.843)"/>
              <path id="Trazado_9013" data-name="Trazado 9013" d="M26.626,82.366S80.916,137.21,87.81,133.2,138.926,78.779,134.1,76.756s-29.658-8.539-29.658-8.539l-19.785,42.4c-10.941-7.8-36.91-35.082-43.762-32.908s-14.268,4.661-14.268,4.661" transform="translate(40.257 108.373)" fill="#0072ce"/>
              <path id="Trazado_9014" data-name="Trazado 9014" d="M109.188,40.8s1.352,18.88-9.8,34.125S68.583,89.271,78.3,97.553c9.48,8.079,24.1,14.708,12.294,42.318C80.418,163.667,65.966,159.243,42.436,169S3.693,146.973,17.894,124.317s26.037-5.07,30.431-30.768S45.284,51.283,71.994,37.422s34.152-6.086,37.194,3.381" transform="translate(7.711 38.377)"/>
              <path id="Trazado_9015" data-name="Trazado 9015" d="M40.534,56.219a9.494,9.494,0,0,0,.842,2.8c6.481,14.471,29.3,20.5,36.588,21.15l-1.735-14.31Z" transform="translate(65.658 86.459)"/>
              <path id="Trazado_9016" data-name="Trazado 9016" d="M92.989,43.212s15.2,36.325,9.209,56.506-24.412,16.7-35.4,12.614-16.012-10.947-16.012-10.947a15.579,15.579,0,0,1-17.131-6.365c-6.755-9.706-2.332-20.661,3.6-23.095s12.874,1.928,12.874,1.928L44.8,63.283s23.94-52.928,48.191-20.07" transform="translate(46.88 43.064)" fill="#ffdcd4"/>
              <path id="Trazado_9017" data-name="Trazado 9017" d="M76.084,86.684S69,68.867,69.423,65.353s3.086-.777,3.086-.777L83.425,77.821s4.31-38.018,7.193-34.658,2.524,27.51,2.524,27.51,4.392-28.36,7.753-27.73,3.943,27,3.943,27,6.3-30.011,7.976-21.885-3.358,41.868-3.776,49.137,16.2,87.161,16.2,87.161l-39.112.093s-6.252-82.161-10.04-97.76" transform="translate(118.388 62.192)" fill="#ffdcd4"/>
              <path id="Trazado_9018" data-name="Trazado 9018" d="M84.5,75.516c-1.133-4.59-5.181-16.885-10.257-18.646l.673-1.936c7.162,2.482,11.4,19.372,11.574,20.09Z" transform="translate(127.23 84.112)" fill="#ffdcd4"/>
              <path id="Trazado_9019" data-name="Trazado 9019" d="M44.854,58.711s.206-8.7-7.544-11.051c-6.789-2.063-7.894,18.267,2.106,19.974s5.438-8.923,5.438-8.923" transform="translate(50.184 70.558)" fill="#ffdcd4"/>
              <path id="Trazado_9020" data-name="Trazado 9020" d="M16.337,47.931S77.3,12.236,82.482,12.236s75.876,14.276,75.226,17.846S96.99,73.513,91.032,74.109,12.245,51.294,16.337,47.931" transform="translate(21.161 6.127)"/>
              <path id="Trazado_9021" data-name="Trazado 9021" d="M26.626,35.1l2.838,41.645,85.867-3.57L110,20.563Z" transform="translate(40.257 21.336)"/>
              <path id="Trazado_9022" data-name="Trazado 9022" d="M38.151,69.572S51.9,81.024,60.567,73.885s17.154-24.1,34.112-9.966,8.479-5.653,8.479-8.479S89.406,31,90.629,31.912s-35.172-.3-38.171,1.721S15.539,55.883,38.151,71.205" transform="translate(47.193 42.013)"/>
            </g>
          </g>
          <g id="Grupo_23653" data-name="Grupo 23653">
            <g id="Grupo_23652" data-name="Grupo 23652" clip-path="url(#clip-path-2)">
              <g id="Grupo_23651" data-name="Grupo 23651" transform="translate(164.843 205.026)" style="isolation: isolate">
                <g id="Grupo_23650" data-name="Grupo 23650">
                  <g id="Grupo_23649" data-name="Grupo 23649" clip-path="url(#clip-path-3)">
                    <path id="Trazado_9023" data-name="Trazado 9023" d="M67.86,77.31A2.788,2.788,0,0,0,65.441,78.7l-2.909,5.044a2.789,2.789,0,0,0,0,2.79l1.583,2.745L71.867,77.31Z" transform="translate(-62.157 -77.309)" fill="#747a74"/>
                  </g>
                </g>
              </g>
              <path id="Trazado_9024" data-name="Trazado 9024" d="M66.641,92.978H68.8l7.569-11.693L74.878,78.7a2.772,2.772,0,0,0-2.411-1.395H70.648L62.9,89.284l1.326,2.3a2.788,2.788,0,0,0,2.419,1.395" transform="translate(103.905 127.717)" fill="#0072ce"/>
              <path id="Trazado_9025" data-name="Trazado 9025" d="M68.785,90.5A2.787,2.787,0,0,0,71.2,89.107l2.912-5.044a2.789,2.789,0,0,0,0-2.79l-1.421-2.464L65.123,90.5Z" transform="translate(107.584 130.193)" fill="#ff6720"/>
            </g>
          </g>
        </g>
      </g>
      <path id="Trazado_9027" data-name="Trazado 9027" d="M-19298.988,8057.148c-45.383,18.376-47.709,17.6-47.709,17.6l-10.086,34.134" transform="translate(0 -16)" fill="none" stroke="#ffd500" stroke-width="2"/>
      <path id="Trazado_9028" data-name="Trazado 9028" d="M-19363.748,8115.141s2.711-7.949,6.143-6.143,2.891,8.311,2.891,8.311Z" transform="translate(1 -18)" fill="#ffd500"/>
    </g>
  </g>
</svg>
